<svg width="30" height="30" viewBox="0 0 30 30" fill="none" xmlns="http://www.w3.org/2000/svg">
<path d="M15.6812 22.5V22.9064L16.0832 22.8461C20.005 22.2578 22.85 18.9227 22.85 15C22.85 10.6817 19.3183 7.15 15 7.15C10.6817 7.15 7.15 10.6817 7.15 15C7.15 18.9232 9.99497 22.1628 13.7267 22.752L14.1313 22.8158V22.4062V17.1562V16.8062H13.7812H12.2563V15.35H13.7812H14.1313V15V13.3125C14.1313 12.4456 14.3899 11.8161 14.8022 11.4037C15.215 10.9909 15.8214 10.7563 16.5938 10.7563C16.9921 10.7563 17.3955 10.8007 17.7026 10.8462C17.7875 10.8588 17.8645 10.8714 17.9312 10.8829V12.1187H17.3438C16.8027 12.1187 16.3915 12.2837 16.1212 12.5878C15.858 12.8839 15.775 13.2601 15.775 13.5938V15V15.35H16.125H17.7714L17.5181 16.8062H16.0312H15.6812V17.1562V22.5ZM0.35 15C0.35 6.90903 6.90903 0.35 15 0.35C23.091 0.35 29.65 6.90903 29.65 15C29.65 23.091 23.091 29.65 15 29.65C6.90903 29.65 0.35 23.091 0.35 15Z" stroke="#6E26C9" stroke-width="0.7"/>
</svg>
