<svg width="30" height="30" viewBox="0 0 30 30" fill="none" xmlns="http://www.w3.org/2000/svg">
<path d="M10.4911 9.2458L10.5042 9.24254L10.5169 9.23829C10.7675 9.15478 11.1141 9.06592 11.8344 8.975H18.1875C18.7595 8.975 19.0805 9.09253 19.332 9.18457L19.3351 9.18572L19.3377 9.18665C19.3771 9.20107 19.4183 9.21617 19.459 9.23015C19.5328 9.26668 19.6027 9.29974 19.6667 9.32995L19.6676 9.33041C19.939 9.45863 20.1093 9.54173 20.2838 9.71623C20.5335 9.96594 20.6798 10.1937 20.7542 10.4911L20.7575 10.5042L20.7617 10.5169C20.8452 10.7675 20.9341 11.1141 21.025 11.8344V18.1875C21.025 18.7595 20.9075 19.0805 20.8154 19.332L20.8143 19.3351L20.8133 19.3377C20.7989 19.3771 20.7838 19.4183 20.7699 19.459C20.7333 19.5327 20.7004 19.6025 20.6701 19.6665L20.6696 19.6676C20.5414 19.939 20.4583 20.1093 20.2838 20.2838C20.0341 20.5335 19.8063 20.6798 19.5089 20.7542L19.4958 20.7575L19.4831 20.7617C19.2325 20.8452 18.8859 20.9341 18.1656 21.025H11.8125C11.2406 21.025 10.9195 20.9075 10.668 20.8154L10.6649 20.8143L10.5445 21.1429L10.6648 20.8143L10.6623 20.8133C10.6229 20.7989 10.5817 20.7838 10.541 20.7699C10.4673 20.7334 10.3977 20.7005 10.3338 20.6703L10.3324 20.6696C10.061 20.5414 9.89074 20.4583 9.71624 20.2838C9.46654 20.0341 9.32016 19.8063 9.2458 19.5089L9.24254 19.4958L9.23829 19.4831C9.15478 19.2325 9.06592 18.8859 8.975 18.1656V11.8125C8.975 11.2405 9.09253 10.9195 9.18457 10.668L9.18573 10.6649L9.18669 10.6622C9.2011 10.6229 9.21618 10.5816 9.23015 10.541C9.26659 10.4674 9.29952 10.3978 9.32967 10.3339L9.33041 10.3324L9.33041 10.3324C9.45863 10.061 9.54173 9.89074 9.71624 9.71624C9.96594 9.46653 10.1937 9.32016 10.4911 9.2458ZM18.2262 6.87089L18.2069 6.86875H18.1875H11.8125C10.9085 6.86875 10.3 7.07181 9.80751 7.26878C9.29771 7.4727 8.78821 7.77931 8.28376 8.28376C7.77482 8.7927 7.56586 9.21065 7.28566 9.77105L7.2807 9.78097L7.27419 9.79399L7.26878 9.80751C7.06185 10.3249 6.96464 10.9301 6.87089 11.7738L6.86875 11.7931V11.8125V18.1875C6.86875 19.0915 7.07181 19.7 7.26878 20.1925C7.4727 20.7023 7.77932 21.2118 8.28376 21.7162C8.7927 22.2252 9.21065 22.4341 9.77105 22.7143L9.78098 22.7193L9.794 22.7258L9.80751 22.7312C10.3249 22.9382 10.9301 23.0354 11.7738 23.1291L11.7931 23.1312H11.8125H18.1875C19.0915 23.1312 19.7 22.9282 20.1925 22.7312C20.7023 22.5273 21.2118 22.2207 21.7162 21.7162C22.2252 21.2073 22.4341 20.7894 22.7143 20.229L22.7193 20.219L22.7258 20.206L22.7312 20.1925C22.9382 19.6751 23.0354 19.0699 23.1291 18.2262L23.1313 18.2069V18.1875V11.8125C23.1313 10.9085 22.9282 10.3 22.7312 9.80751C22.5273 9.29771 22.2207 8.78821 21.7162 8.28376C21.2073 7.77482 20.7894 7.56585 20.2289 7.28566L20.219 7.2807L20.206 7.27419L20.1925 7.26878C19.6751 7.06184 19.0699 6.96464 18.2262 6.87089ZM15 17.275C13.7789 17.275 12.725 16.2986 12.725 15C12.725 13.7788 13.7014 12.725 15 12.725C16.2211 12.725 17.275 13.7014 17.275 15C17.275 16.2129 16.2129 17.275 15 17.275ZM15 10.6187C12.5567 10.6187 10.6187 12.5567 10.6187 15C10.6187 17.4433 12.5567 19.3812 15 19.3812C17.4433 19.3812 19.3813 17.4433 19.3813 15C19.3813 12.5567 17.4433 10.6187 15 10.6187ZM19.125 12.1625C19.8361 12.1625 20.4125 11.5861 20.4125 10.875C20.4125 10.1639 19.8361 9.5875 19.125 9.5875C18.4139 9.5875 17.8375 10.1639 17.8375 10.875C17.8375 11.5861 18.4139 12.1625 19.125 12.1625ZM0.35 15C0.35 6.90903 6.90903 0.35 15 0.35C23.091 0.35 29.65 6.90903 29.65 15C29.65 23.091 23.091 29.65 15 29.65C6.90903 29.65 0.35 23.091 0.35 15Z" stroke="#6E26C9" stroke-width="0.7"/>
</svg>
