<svg width="30" height="30" viewBox="0 0 30 30" fill="none" xmlns="http://www.w3.org/2000/svg">
<path d="M11.8061 15.6761L11.7807 15.6253C11.7808 15.6256 11.7794 15.6228 11.7754 15.6158C11.7716 15.6092 11.7665 15.6007 11.7598 15.5897C11.7461 15.5673 11.729 15.5403 11.7073 15.506C11.7073 15.5059 11.7073 15.5059 11.7073 15.5059L11.6981 15.4915C11.491 15.1647 10.9938 14.3801 10.9938 13.5C10.9938 12.4228 11.5423 11.869 11.7525 11.6588L11.7525 11.6588C12.0408 11.3705 12.3478 11.3687 12.4687 11.3687H12.8438C12.8457 11.3687 12.8477 11.3687 12.85 11.3687C12.9016 11.3686 13.0423 11.3681 13.1878 11.4409C13.3478 11.5209 13.4696 11.6639 13.542 11.8641C13.6419 12.067 13.7812 12.3933 13.8953 12.6786C13.9548 12.8274 14.0093 12.9696 14.0494 13.0823C14.0694 13.1382 14.0869 13.1902 14.1 13.2336C14.1064 13.255 14.1129 13.2781 14.1181 13.3005L14.1181 13.3007C14.1208 13.3123 14.1275 13.3414 14.1302 13.3772L14.1341 13.3893L11.8061 15.6761ZM11.8061 15.6761L11.8352 15.7052M11.8061 15.6761L11.8352 15.7052M11.8352 15.7052C11.837 15.7076 11.8393 15.7106 11.8421 15.7145C11.8546 15.7315 11.8715 15.755 11.8947 15.7874L12.1794 15.5839L11.8947 15.7874L11.9008 15.796C12.2253 16.2499 13.4121 17.9098 15.1496 18.6056C15.8231 18.8828 16.2836 19.0194 16.6269 19.0807C16.981 19.144 17.2005 19.125 17.3727 19.1098C17.4401 19.1038 17.4857 19.1 17.5313 19.1C17.6883 19.1 17.8529 19.0534 17.9967 18.9959C18.146 18.9361 18.2992 18.854 18.4402 18.76C18.5808 18.6662 18.7177 18.5552 18.8298 18.4338C18.9319 18.3234 19.0349 18.1815 19.0825 18.0171C19.1823 17.7628 19.2368 17.5243 19.2513 17.3354C19.2585 17.2425 19.2578 17.1396 19.2353 17.0463C19.225 17.0038 19.2048 16.9396 19.16 16.8773C19.1131 16.7002 19.0442 16.5562 18.9419 16.4428C18.823 16.311 18.6852 16.2531 18.6086 16.2209C18.605 16.2195 18.6016 16.218 18.5984 16.2167C18.568 16.2038 18.5491 16.1957 18.5315 16.187L18.375 16.5L18.5315 16.1869L18.5311 16.1867C18.4368 16.1396 18.1513 15.9968 17.8646 15.8654C17.7215 15.7998 17.5736 15.735 17.4468 15.6859C17.3837 15.6614 17.3211 15.639 17.2643 15.6222C17.2381 15.6144 17.2024 15.6045 17.1625 15.5973C17.0671 15.5539 16.9254 15.5049 16.7712 15.5357C16.5483 15.5803 16.4346 15.7544 16.3744 15.8747C16.3673 15.889 16.3445 15.9248 16.2963 15.9872C16.2512 16.0455 16.197 16.1106 16.1374 16.1822L16.1351 16.1849C16.0781 16.2533 16.0161 16.3277 15.9623 16.3973C15.9328 16.4355 15.9008 16.4785 15.8713 16.5233C15.868 16.5235 15.8644 16.5237 15.8605 16.5238C15.8501 16.5242 15.839 16.5245 15.8267 16.5247C15.8118 16.518 15.7968 16.5114 15.7822 16.505L15.7766 16.5025L15.7766 16.5025L15.774 16.5014C15.5349 16.396 15.0731 16.1926 14.4805 15.6741L14.4806 15.674L14.4741 15.6686C13.9975 15.2714 13.6614 14.7139 13.5513 14.5062C13.554 14.5035 13.5569 14.5006 13.56 14.4975L13.8412 14.2163C13.9287 14.1288 13.9735 14.0389 13.9977 13.9903L14.0006 13.9847C14.0132 13.9593 14.0179 13.9505 14.0224 13.9433C14.0253 13.9387 14.0268 13.9369 14.0287 13.935L14.0287 13.935M11.8352 15.7052L14.0287 13.935M14.0287 13.935C14.1249 13.8388 14.1729 13.7189 14.1729 13.5937M14.0287 13.935L14.1729 13.5937M14.1729 13.5937C14.1729 13.5024 14.145 13.421 14.1359 13.3944M14.1729 13.5937L14.1359 13.3944M14.1359 13.3944C14.1352 13.3924 14.1346 13.3907 14.1341 13.3893L14.1359 13.3944ZM9.79369 20.3993L10.2735 18.7543L10.3192 18.5977L10.2287 18.4621L10.0433 18.184C9.42765 17.2152 9.16249 16.1578 9.16249 15.0937C9.16249 11.9121 11.8183 9.25625 15 9.25625C16.588 9.25625 18.0035 9.87103 19.1637 10.9399C20.3082 12.0869 20.8375 13.4937 20.8375 15.0937C20.8375 18.1817 18.2754 20.8375 15 20.8375C13.931 20.8375 12.8696 20.5699 11.9926 20.0436L11.981 20.0367L11.969 20.0307L11.7815 19.9369L11.6607 19.8765L11.5306 19.913L9.79369 20.3993ZM7.16253 22.4072L7.00161 22.9923L7.58868 22.8386L11.3999 21.8404C12.5249 22.3869 13.7549 22.7563 15 22.7563C19.3183 22.7563 22.85 19.2246 22.85 14.9063C22.85 12.8363 21.9632 10.8745 20.4975 9.40877C19.0237 7.93496 17.0588 7.15 15 7.15C10.6817 7.15 7.15 10.6817 7.15 15C7.15 16.3276 7.51508 17.6509 8.15526 18.7973L7.16253 22.4072ZM0.35 15C0.35 6.90903 6.90903 0.35 15 0.35C23.091 0.35 29.65 6.90903 29.65 15C29.65 23.091 23.091 29.65 15 29.65C6.90903 29.65 0.35 23.091 0.35 15Z" stroke="#6E26C9" stroke-width="0.7"/>
</svg>
