<svg width="30" height="30" viewBox="0 0 30 30" fill="none" xmlns="http://www.w3.org/2000/svg">
<path d="M30 15C30 6.71573 23.2843 0 15 0C6.71573 0 0 6.71573 0 15C0 23.2843 6.71573 30 15 30C23.2843 30 30 23.2843 30 15Z" fill="white"/>
<path fill-rule="evenodd" clip-rule="evenodd" d="M22.3405 15.1705C22.3405 14.6387 22.2928 14.1273 22.2042 13.6364H15.1405V16.5375H19.1769C19.003 17.475 18.4746 18.2693 17.6803 18.8012V20.683H20.1042C21.5224 19.3773 22.3405 17.4546 22.3405 15.1705Z" fill="#4285F4"/>
<path fill-rule="evenodd" clip-rule="evenodd" d="M15.1402 22.5C17.1652 22.5 18.863 21.8284 20.1039 20.6829L17.68 18.8011C17.0084 19.2511 16.1493 19.517 15.1402 19.517C13.1868 19.517 11.5334 18.1977 10.9436 16.425H8.43796V18.3681C9.67205 20.8193 12.2084 22.5 15.1402 22.5Z" fill="#34A853"/>
<path fill-rule="evenodd" clip-rule="evenodd" d="M10.9439 16.425C10.7939 15.975 10.7087 15.4943 10.7087 15C10.7087 14.5056 10.7939 14.025 10.9439 13.575V11.6318H8.43826C7.93031 12.6443 7.64053 13.7897 7.64053 15C7.64053 16.2102 7.93031 17.3557 8.43826 18.3682L10.9439 16.425Z" fill="#FBBC05"/>
<path fill-rule="evenodd" clip-rule="evenodd" d="M15.1402 10.483C16.2414 10.483 17.23 10.8614 18.0073 11.6046L20.1584 9.45341C18.8596 8.24318 17.1618 7.5 15.1402 7.5C12.2084 7.5 9.67205 9.18069 8.43796 11.6318L10.9436 13.575C11.5334 11.8023 13.1868 10.483 15.1402 10.483Z" fill="#EA4335"/>
</svg>
