<svg width="150" height="150" viewBox="0 0 150 150" fill="none" xmlns="http://www.w3.org/2000/svg">
<path fill-rule="evenodd" clip-rule="evenodd" d="M20.8261 135.005L8.78906 0H141.057L129.007 134.983L74.843 150L20.8261 135.005Z" fill="#0071BC"/>
<path fill-rule="evenodd" clip-rule="evenodd" d="M75.0341 138.514L118.747 126.489L128.989 11.2431H75.0341V138.514Z" fill="#29ABE2"/>
<path fill-rule="evenodd" clip-rule="evenodd" d="M36.3418 60.8432L37.7918 77.3767L75.0341 60.8432V44.283L36.3418 60.8432Z" fill="#B3B3B3"/>
<path fill-rule="evenodd" clip-rule="evenodd" d="M116.281 26.6057L75.0341 44.2829V60.8432L114.859 43.1391L116.281 26.6057Z" fill="#E6E6E6"/>
<path fill-rule="evenodd" clip-rule="evenodd" d="M75.0341 104.103L74.9061 104.122L56.4366 99.1619L55.2299 85.9741H38.6075L40.9272 111.955L74.9025 121.362L75.0341 121.331V104.103Z" fill="#E6E6E6"/>
<path fill-rule="evenodd" clip-rule="evenodd" d="M75.0341 60.8432V77.3767H95.2552L93.4173 98.9929L75.0341 104.117V121.344L108.897 111.937L113.356 60.8432H75.0341Z" fill="white"/>
<path fill-rule="evenodd" clip-rule="evenodd" d="M75.0341 60.8432H36.3418L37.7918 77.3767H75.0341V60.8432Z" fill="#E6E6E6"/>
<path fill-rule="evenodd" clip-rule="evenodd" d="M75.0341 43.1391V26.6057H74.8661H33.4021L34.8693 43.1391H75.0341Z" fill="#E6E6E6"/>
<path fill-rule="evenodd" clip-rule="evenodd" d="M75.0341 26.6057V42.9318V43.1391H114.859L116.281 26.6057H75.0341Z" fill="white"/>
</svg>
