<svg width="24" height="24" viewBox="0 0 24 24" fill="none" xmlns="http://www.w3.org/2000/svg">
<path d="M4 14.725H3.8V14.925V18.5C3.8 18.9565 3.9736 19.3564 4.30858 19.6914C4.64356 20.0264 5.04349 20.2 5.5 20.2H18.5C18.9565 20.2 19.3564 20.0264 19.6914 19.6914C20.0264 19.3564 20.2 18.9565 20.2 18.5V14.925V14.725H20H18.5H18.3V14.925V18.3H5.7V14.925V14.725H5.5H4ZM11.8586 16.3164L12 16.4578L12.1414 16.3164L16.9664 11.4914L17.1078 11.35L16.9664 11.2086L15.8914 10.1336L15.75 9.99216L15.6086 10.1336L12.95 12.7922V4V3.8H12.75H11.25H11.05V4V12.7922L8.39142 10.1336L8.25 9.99216L8.10858 10.1336L7.03358 11.2086L6.89216 11.35L7.03358 11.4914L11.8586 16.3164Z" fill="#CEABFC" stroke="#CEABFC" stroke-width="0.4"/>
</svg>
