<svg width="150" height="150" viewBox="0 0 150 150" fill="none" xmlns="http://www.w3.org/2000/svg">
<path fill-rule="evenodd" clip-rule="evenodd" d="M20.8257 135.005L8.78906 0H141.051L129.002 134.984L74.8393 150L20.8257 135.005Z" fill="#E44D26"/>
<path fill-rule="evenodd" clip-rule="evenodd" d="M74.9203 138.523L118.686 126.389L128.983 11.0387H74.9203V138.523Z" fill="#F16529"/>
<path d="M53.0098 61.1103H74.9203V77.668H37.8669L33.401 27.5967H74.9203V44.1548H51.4966L53.0098 61.1103Z" fill="#EBEBEB"/>
<path d="M74.8477 104.132L74.9203 104.113V121.34L74.844 121.361L40.9265 111.945L38.6067 85.9472H55.2282L56.4071 99.1528L74.8477 104.132Z" fill="#EBEBEB"/>
<path d="M74.863 27.5967H116.341L114.858 44.1548H74.863V27.5967Z" fill="white"/>
<path d="M74.863 77.668V61.1103H113.352L112.947 65.5565L108.808 111.945L74.863 121.353V104.127L93.3302 99.1423L95.2522 77.668H74.863Z" fill="white"/>
</svg>
