<svg width="132" height="150" viewBox="0 0 132 150" fill="none" xmlns="http://www.w3.org/2000/svg">
<g clip-path="url(#clip0_6_64)">
<path d="M131.268 -0.554443H0L12.3061 134.053L65.6274 149.307L118.949 134.053L131.268 -0.554443Z" fill="#E6A329"/>
<path d="M65.6274 10.4124V137.901L108.83 125.555L119.34 10.4124H65.6274Z" fill="#F1BF22"/>
<path d="M99.9975 26.9259H33.5714L28.9448 77.3192L29.04 77.0057H85.4725L83.6345 98.3276L65.6291 103.552L47.3579 98.2433L46.2635 85.3383H29.6783L32.0443 111.125L65.6291 120.742L99.2289 111.125L103.856 60.509H43.9644L44.733 43.645H86.2862L86.9078 53.3074H103.633L99.9975 26.9259Z" fill="white"/>
<path d="M65.6424 26.9259H33.5714L28.9448 77.3192L29.04 77.0057H65.6408V60.5663H46.3003L47.0689 43.7023H65.6424V26.9259ZM46.3003 85.3467H29.6766L32.0426 111.12L65.6274 120.726V103.576L47.3563 98.2534L46.3003 85.3467Z" fill="#EBEBEB"/>
</g>
<defs>
<clipPath id="clip0_6_64">
<rect width="132" height="150" fill="white"/>
</clipPath>
</defs>
</svg>
