<svg width="104" height="18" viewBox="0 0 104 18" fill="none" xmlns="http://www.w3.org/2000/svg">
<g clip-path="url(#clip0_6_190)">
<path d="M50.0014 15.5122C51.891 15.0732 53.7806 13.9756 54.7254 11.561H46.0769V9.21951H58.4319V10.3171H57.8504C57.1237 14.0488 54.5073 17.8537 48.6932 18L47.4577 16.7561C47.4577 16.7561 45.8588 17.4878 45.7135 17.6341C41.7163 16.4634 39.3906 12.7317 39.3906 9.07317C39.2453 3.87805 43.1698 0 48.0391 0C50.9462 0 52.9811 0.878049 54.7254 2.4878L53.2718 4.46341C52.5451 3.65854 50.6555 2.34146 48.1118 2.34146C44.6233 2.34146 41.7163 5.12195 41.7163 9.07317C41.7163 12.3659 44.1146 14.9268 46.8763 15.5854L50.0014 15.5122Z" fill="#8257E6"/>
<path d="M8.9392 18C3.9972 18 0 13.9756 0 9C0 3.95122 3.9972 0 8.9392 0C13.9539 0 17.8784 4.02439 17.8784 9.07317C17.8784 13.9756 13.8812 18 8.9392 18ZM8.9392 2.34146C6.25017 2.34146 4.14256 3.80488 3.12509 6.21951C2.7617 7.09756 2.54368 8.04878 2.54368 9C2.54368 9.95122 2.7617 10.9024 3.12509 11.7805C4.21523 14.1951 6.32285 15.6585 8.9392 15.6585C11.7736 15.6585 13.9539 14.0488 14.9713 11.3415C15.2621 10.6098 15.4074 9.80488 15.4074 9C15.4074 5.41463 12.7184 2.34146 8.9392 2.34146ZM28.5618 10.8293C28.0531 11.0488 27.4717 11.122 26.8903 11.122L31.6869 17.561H28.5618L22.8931 9.5122H22.8204V17.561H20.3494V0.292683H25.6548C27.2537 0.292683 28.9979 0.585366 30.2334 1.7561C31.3235 2.85366 31.8323 4.39024 31.8323 5.85366C31.8323 8.19512 30.8148 10.0976 28.5618 10.8293ZM25.5094 2.63415H22.8931V9.29268H24.6373C26.8903 9.29268 29.3613 8.63415 29.3613 5.92683C29.3613 3.65854 27.5444 2.63415 25.5094 2.63415ZM34.1579 17.6341V0.292683H36.7016V17.6341H34.1579ZM78.9993 17.6341V3H78.9266L73.1125 17.6341H71.5863L65.7722 3H65.6995V17.6341H63.2285V0.292683H67.153L72.3131 13.5366L77.4731 0.292683H81.3976V17.6341H78.9993ZM84.3047 17.6341V0.292683H86.8484V17.6341H84.3047ZM101.82 15.1463C99.9301 17.0488 97.6771 17.6341 95.1335 17.6341H89.6101V0.292683H95.2061C97.9678 0.292683 100.584 1.17073 102.256 3.5122C103.346 5.04878 104 7.09756 104 9.07317C104 11.0488 103.273 13.6829 101.82 15.1463ZM101.02 6.36585C100.003 3.87805 97.8952 2.63415 95.2061 2.63415H92.1537V15.3659H95.1335C99.058 15.3659 101.456 13.0976 101.456 9.07317C101.529 8.12195 101.311 7.2439 101.02 6.36585ZM57.269 0.292683L45.4955 17.561C46.3676 17.8537 47.3124 18 48.3298 18H48.6932L57.7778 3.58537H57.8504V17.6341H60.3941V0.292683H57.269Z" fill="#8257E6"/>
</g>
<defs>
<clipPath id="clip0_6_190">
<rect width="104" height="18" fill="white"/>
</clipPath>
</defs>
</svg>
