<svg width="110" height="21" viewBox="0 0 110 21" fill="none" xmlns="http://www.w3.org/2000/svg">
<g clip-path="url(#clip0_6_174)">
<path d="M22.9191 6.16602C21.9936 6.16602 21.2304 6.90995 21.2304 7.84797V11.4059V14.9638H22.9191V11.4059V7.84797H24.9325H26.9459V6.16602H24.9325H22.9191Z" fill="#E1E1E6"/>
<path d="M37.0127 10.5487V7.83173C37.0127 6.90989 36.2658 6.14978 35.324 6.14978H32.5962H29.8684C28.9429 6.14978 28.1797 6.89371 28.1797 7.83173V10.5487V13.2656C28.1797 14.1874 28.9266 14.9476 29.8684 14.9476H32.5962H35.324C36.2495 14.9476 37.0127 14.2036 37.0127 13.2656V10.5487ZM35.324 10.5487V13.2656H32.5962H29.8684V10.5487V7.83173H32.5962H35.324V10.5487Z" fill="#E1E1E6"/>
<path d="M40.39 6.16602C39.4646 6.16602 38.7014 6.90995 38.7014 7.84797V10.5649V13.2818C38.7014 14.2037 39.4483 14.9638 40.39 14.9638L46.3328 14.8829V13.2818H40.39V10.5649V7.84797H46.3328V6.24685L40.39 6.16602Z" fill="#E1E1E6"/>
<path d="M56.0116 6.16602H53.7221L50.3773 9.70777H49.7116V6.16602H48.0229V10.5488V14.9476H49.7116V11.3897H50.5559H50.6858L54.1605 14.9476H56.4824L52.0172 10.3547L56.0116 6.16602Z" fill="#E1E1E6"/>
<path d="M58.5268 13.2656V11.3896L65.6712 11.3088V9.70771V7.83173C65.6712 6.90989 64.9238 6.14978 63.9821 6.14978H61.2547H58.5268C57.6013 6.14978 56.8381 6.89371 56.8381 7.83173V10.5487V13.2656C56.8381 14.1874 57.585 14.9476 58.5268 14.9476L65.6712 14.8667V13.2656H58.5268ZM58.5268 7.83173H61.2547H63.9821V9.70771H62.0987H58.5268V7.83173Z" fill="#E1E1E6"/>
<path d="M69.9087 3.59485H69.2597L68.2202 4.87247V6.15009H66.9374V7.83199L68.2202 7.81587V13.2659C68.2202 14.1878 68.9669 14.9479 69.9087 14.9479L72.6367 14.867V13.2659H69.9087V7.79969L72.8805 7.75114V6.15009H69.9087V3.59485Z" fill="#E1E1E6"/>
<path d="M81.7783 11.3896C81.7783 10.4678 81.0315 9.70771 80.0898 9.70771H77.9625H75.8352V7.83173H81.7783V6.23067L75.8352 6.14978C74.91 6.14978 74.1467 6.89371 74.1467 7.83173V9.70771C74.1467 10.6296 74.8935 11.3896 75.8352 11.3896H77.9625H80.0898V13.2656H74.1467V14.8667L80.0898 14.9476C81.015 14.9476 81.7783 14.2036 81.7783 13.2656V11.3896Z" fill="#E1E1E6"/>
<path d="M90.5948 6.16602H87.8668H85.1388C84.2135 6.16602 83.4503 6.90995 83.4503 7.84797V10.5649V13.2818C83.4503 14.2037 84.197 14.9638 85.1388 14.9638L92.2833 14.8829V13.2818H85.1388V11.4059L92.2833 11.325V9.72395V7.84797C92.2833 6.90995 91.5365 6.16602 90.5948 6.16602ZM90.5948 9.70777H85.1388V7.83179H87.8668H90.5948V9.70777Z" fill="#E1E1E6"/>
<path d="M101.116 6.16602L93.9718 6.24685V7.84797H101.116V9.72395L93.9718 9.8048V11.4059V13.2818C93.9718 14.2037 94.7185 14.9638 95.6603 14.9638H98.3883H101.116C102.041 14.9638 102.805 14.2199 102.805 13.2818V10.5649V7.84797C102.788 6.90995 102.041 6.16602 101.116 6.16602ZM101.116 13.2657H98.3883H95.6603V11.3897H101.116V13.2657Z" fill="#E1E1E6"/>
<path d="M107.029 7.79936L110 7.75082V6.14978H107.029V3.57837H106.379L105.34 4.85598V6.13361H104.057V7.81555L105.34 7.79936V13.2495C105.34 14.1713 106.087 14.9314 107.029 14.9314L109.756 14.8505V13.2495H107.029V7.79936Z" fill="#E1E1E6"/>
<path d="M16.7656 0.408612L14.0216 0.0043018C13.9404 -0.0118706 13.8592 0.0204722 13.8267 0.052817L12.6577 1.57302C12.5765 1.67006 12.5603 1.79943 12.5927 1.91264C12.6252 2.02585 12.5278 2.12288 12.4141 2.10671L11.4562 1.89647C11.31 1.86413 11.1476 1.91264 11.0502 2.04203L7.25075 6.89374C7.18585 6.99078 7.05592 7.02314 6.94226 6.97459L5.49718 6.32773C5.36728 6.263 5.22115 6.27919 5.10749 6.36004L4.37683 6.86138C4.26316 6.94223 4.10079 6.95841 3.97089 6.89374L3.61368 6.71586C3.38637 6.60265 3.11034 6.73204 3.04539 6.97459L2.7856 8.12286C2.72065 8.39778 2.83431 8.67269 3.07787 8.81827L3.62992 9.15785L5.39975 10.2415L6.26032 10.7751C6.50385 10.9207 6.8124 10.8883 7.02347 10.7104L8.46857 9.44901C8.58217 9.35192 8.7608 9.31961 8.89072 9.40047L9.32907 9.62689C9.47525 9.70774 9.65382 9.67538 9.76749 9.56216L10.4982 8.88294C10.6118 8.76972 10.7904 8.75354 10.9203 8.81827L12.0082 9.31961C12.1706 9.40046 12.3654 9.35192 12.4791 9.2064L12.9824 8.55948L16.7981 3.69161C16.9767 3.46519 16.863 3.12557 16.5708 3.06089L15.7265 2.86682C15.5479 2.83447 15.4667 2.60806 15.5966 2.47868L16.9118 0.845262C17.0417 0.651198 16.9605 0.440957 16.7656 0.408612Z" fill="#8257E6"/>
<path d="M4.18166 10.2091C4.10048 10.1606 4.01929 10.2415 4.05177 10.3223L4.45769 11.3897C4.49016 11.4705 4.49016 11.5514 4.47393 11.6323L4.11671 13.0231C4.10048 13.1201 4.13295 13.2172 4.1979 13.2657L5.22083 14.0581C5.31825 14.1228 5.44815 14.1228 5.52933 14.042L6.60098 13.1039C6.66594 13.0555 6.7471 13.0231 6.81206 13.0069L8.02982 12.8775C8.11103 12.8614 8.14348 12.7482 8.06233 12.6996L4.18166 10.2091Z" fill="#8257E6"/>
<path d="M3.82454 13.7994C3.75959 13.7509 3.66217 13.7347 3.58099 13.7671L2.72043 14.1875C2.67172 14.2037 2.63924 14.2522 2.60677 14.3007L0.771992 18.8128C0.771992 18.829 0.771992 18.829 0.771992 18.8452C0.788229 18.8614 0.804467 18.8776 0.836935 18.8776L1.2591 18.7158C1.27534 18.7158 1.29157 18.7158 1.30781 18.7158C1.32405 18.732 1.34028 18.7643 1.32405 18.7805L0.00885042 20.9314C-0.0236236 20.98 0.0413258 21.0285 0.0737996 20.98L4.83124 16.2253C4.87995 16.1768 4.89619 16.1282 4.91242 16.0636L5.00985 14.8344C5.00985 14.7536 4.97737 14.6889 4.92866 14.6404L3.82454 13.7994Z" fill="#8257E6"/>
</g>
<defs>
<clipPath id="clip0_6_174">
<rect width="110" height="21" fill="white"/>
</clipPath>
</defs>
</svg>
